<svg width="296" height="164" viewBox="0 0 296 164" fill="none" xmlns="http://www.w3.org/2000/svg">
<path d="M60.2406 23.4573L58.5956 21.5121L56.9507 23.4573L58.5956 25.2944L60.2406 23.4573Z" fill="white"/>
<path d="M74.8102 15.3522L72.4603 12.6505L70.1104 15.3522L72.4603 18.1619L74.8102 15.3522Z" fill="white"/>
<path d="M41.559 34.8051C42.4989 34.1567 45.6713 32.4276 44.8488 35.7777C45.6713 35.5615 46.2588 34.9131 46.2588 34.1567C46.2588 32.1034 43.2039 31.1308 43.2039 29.1857C43.2039 26.2679 48.2562 26.2679 48.0212 26.7001C47.1988 29.2937 48.8437 32.6438 53.5435 32.8599C53.5435 32.6438 53.5435 32.4276 53.5435 32.2115C49.5487 32.2115 47.7862 28.2131 50.8411 25.4034C49.1962 20.4323 46.6113 25.4034 44.4964 26.7001C43.3214 27.4566 39.914 27.0243 39.679 28.4292C39.3266 30.3744 43.2039 30.2663 41.559 34.8051Z" fill="white"/>
<path d="M59.7704 42.1521C58.8305 41.2876 57.773 40.6392 56.5981 40.315C55.6581 40.9634 55.0706 41.936 54.9531 42.9086C56.4806 41.7199 58.5955 41.8279 59.7704 42.1521Z" fill="white"/>
<path d="M55.5412 32.7517H61.651C66.8208 32.7517 69.1707 29.7259 69.8757 27.1323H72.4606H75.0455C75.7504 29.7259 78.1004 32.7517 83.2702 32.7517H89.3799C89.8499 32.1033 90.3199 31.4549 90.6724 30.6985C91.6124 28.213 90.4374 27.1323 88.5575 27.1323L86.2076 29.1856L83.8576 27.2404C82.0952 27.2404 80.8028 28.321 81.7427 30.8065C81.9777 31.2388 82.2127 31.563 82.4477 31.9953C79.6278 31.6711 77.3954 29.8339 76.9254 27.2404C77.6304 26.1597 78.3353 24.971 78.9228 23.8903C80.3328 20.3242 78.4528 18.9193 75.8679 18.9193L72.3431 22.8097L68.8182 18.9193C66.1158 18.9193 64.2359 20.3242 65.7633 23.8903C66.3508 25.0791 67.0558 26.1597 67.7607 27.2404C67.1733 29.7259 64.9408 31.6711 62.2384 31.9953C62.4734 31.6711 62.7084 31.2388 62.9434 30.8065C63.8834 28.321 62.7084 27.2404 60.8285 27.2404L58.4786 29.1856L56.1287 27.1323C54.3662 27.1323 53.0738 28.321 54.0137 30.6985C54.6012 31.3469 55.0712 32.1033 55.5412 32.7517Z" fill="white"/>
<path d="M87.9681 23.4573L86.3232 21.5121L84.6782 23.4573L86.3232 25.2944L87.9681 23.4573Z" fill="white"/>
<path d="M96.7816 26.5908C96.6641 26.1585 101.599 26.1585 101.599 29.0763C101.599 31.0215 98.5441 31.9941 98.5441 34.0473C98.6616 34.8038 99.1315 35.4522 99.954 35.6683C99.1315 32.3183 102.421 34.0473 103.244 34.6957C101.481 30.265 105.359 30.265 105.006 28.2118C104.771 26.8069 101.364 27.2392 100.189 26.4827C98.0741 25.186 95.4892 20.2149 93.8442 25.186C96.8991 27.8876 95.1367 31.9941 91.1418 31.9941C91.1418 32.2102 91.1418 32.4264 91.1418 32.6425C95.9592 32.5344 97.6041 29.1844 96.7816 26.5908Z" fill="white"/>
<path d="M85.1501 42.1528C86.3251 41.8286 88.44 41.7206 89.9675 43.0173C89.85 41.9367 89.2625 40.9641 88.3225 40.4238C87.0301 40.6399 85.9726 41.2883 85.1501 42.1528Z" fill="white"/>
<path d="M119.105 50.7986C119.105 50.6905 118.988 50.6905 118.87 50.7986C113.583 53.1761 107.708 54.0406 101.834 53.2841C101.951 52.8519 101.951 52.5277 102.069 52.0954C107.943 51.447 112.761 50.4744 115.816 48.8534C119.34 47.0163 120.868 42.5856 119.105 39.3436C118.988 39.3436 118.988 39.3436 118.87 39.3436C117.93 40.4243 111.821 46.6921 102.304 48.5292C102.304 48.097 102.186 47.6647 102.186 47.1244C106.886 44.6389 111.351 41.7211 113.583 39.1275C116.873 35.1291 116.521 30.05 113.466 27.4564C113.348 27.4564 113.348 27.4564 113.231 27.4564C112.173 28.9693 103.009 43.0179 92.9039 49.1776C92.7864 49.2857 92.6689 49.2857 92.5514 49.3938C92.5514 49.3938 92.4339 49.3938 92.4339 49.5018C92.1989 49.7179 92.3164 49.9341 92.4339 50.1502C93.6088 51.1228 94.3138 52.6357 94.3138 54.0406C94.3138 56.7422 92.0814 59.0116 89.2615 59.4439C87.4991 59.66 85.6191 59.5519 83.9742 59.1197C84.5617 58.5793 84.7967 57.7148 84.7967 56.8503C84.2092 56.8503 83.5042 56.5261 82.0943 55.5535C75.632 50.5825 82.7992 38.0469 91.3764 39.2356C92.4339 39.3436 93.3739 39.992 93.7263 40.8566C94.3138 40.4243 94.7838 38.8033 94.6663 37.7227C93.7263 32.7516 81.5068 36.1017 75.397 33.9404C75.2795 35.3452 77.2769 37.7227 79.1569 38.5872C75.9845 41.1808 73.1646 46.3679 72.4596 52.7438C71.7546 46.3679 68.9347 41.1808 65.7624 38.5872C67.6423 37.7227 69.6397 35.4533 69.5222 33.9404C63.4125 35.9936 51.3104 32.7516 50.2529 37.7227C50.0179 38.8033 50.6054 40.3162 51.1929 40.8566C51.5454 39.884 52.4854 39.2356 53.5428 39.2356C62.12 38.1549 69.1697 50.5825 62.7075 55.5535C61.415 56.5261 60.7101 56.7422 60.0051 56.8503C60.0051 57.7148 60.2401 58.5793 60.8275 59.1197C59.0651 59.66 57.3027 59.7681 55.5402 59.4439C52.6028 59.0116 50.4879 56.7422 50.4879 54.0406C50.4879 52.5277 51.1929 51.1228 52.3679 50.1502C52.6028 49.9341 52.6028 49.7179 52.3679 49.5018L52.2504 49.3938C52.1329 49.2857 52.0154 49.2857 51.8979 49.1776C41.7932 43.1259 32.6286 28.9693 31.5711 27.4564C31.5711 27.3483 31.4536 27.3483 31.3361 27.4564C28.2812 30.05 27.9288 35.1291 31.2186 39.1275C33.3336 41.7211 37.9159 44.6389 42.6157 47.1244C42.4982 47.6647 42.4982 48.097 42.4982 48.5292C32.9811 46.584 26.9888 40.3162 25.9313 39.2356C25.9313 39.1275 25.8138 39.1275 25.6963 39.2356C23.9339 42.4775 25.4613 46.9082 28.9862 48.7454C32.0411 50.3663 36.8584 51.3389 42.7332 51.9873C42.8507 52.4196 42.8507 52.8519 42.9682 53.1761C37.2109 53.9325 31.2186 53.068 25.9313 50.6905C25.8138 50.6905 25.8138 50.6905 25.6963 50.6905C25.2264 54.1486 27.5763 56.9583 31.5711 57.6067C35.566 58.2551 44.0257 56.31 44.0257 56.31C44.1432 56.6342 44.3782 57.0664 44.6131 57.3906C38.9733 60.4165 31.1011 60.0923 29.9262 60.0923C29.8087 60.0923 29.8087 60.0923 29.8087 60.2003C29.9262 63.8746 33.686 64.8471 36.9759 64.4149C39.7958 64.0907 43.7907 62.2536 46.6106 60.2003C46.8456 60.5245 47.198 60.7407 47.5505 61.0648C44.8481 65.2794 38.5034 67.0085 36.5059 67.1165C36.3884 67.1165 36.3884 67.2246 36.3884 67.2246C37.6809 69.494 40.8533 70.1424 44.1432 68.6294C46.1406 67.7649 48.608 65.3875 50.2529 62.6858C50.6054 62.902 51.0754 63.01 51.4279 63.2262C50.3704 68.1972 45.0831 71.3311 44.2607 71.7633C44.2607 71.7633 44.2607 71.7633 44.1432 71.8714V71.9795C45.6706 73.6005 49.313 73.7085 51.5454 71.223C52.8378 69.7101 53.8953 67.0085 54.4828 63.6584H54.6003C54.7178 63.6584 54.9528 63.6584 55.1878 63.6584C57.3027 63.8745 61.0625 64.9552 63.7649 71.6553C57.7727 70.7908 55.0703 75.7618 54.7178 77.5989C54.7178 77.815 54.7178 78.0312 54.8353 78.2473C54.0128 79.2199 53.0728 80.9489 52.2504 82.4618C51.1929 80.0844 48.373 78.5715 45.5531 79.1118C42.8507 79.6521 40.9708 81.8135 40.8533 84.299C40.0308 81.1651 41.0883 76.8424 45.2006 76.4102C45.4356 76.4102 45.4356 76.086 45.2006 75.9779L37.4459 72.3037C37.3284 72.1956 37.0934 72.4117 37.2109 72.5198C37.5634 73.0601 37.6809 74.1408 37.3284 75.4376C35.331 82.1377 38.9734 87.2167 43.5557 88.8377C44.2607 89.27 45.0831 89.4861 45.9056 89.5942C46.4931 90.4587 47.5505 90.999 48.7255 90.999C50.6054 90.999 52.2504 89.5942 52.2504 87.7571C52.2504 87.649 52.2504 87.5409 52.2504 87.5409L52.3679 87.2167L52.4854 86.8925L52.6028 86.5683V86.4603V86.3522V86.2441V86.1361V86.028V85.9199L52.7203 85.8119V85.7038L52.8378 85.5958L52.9553 85.4877C53.6603 84.0828 55.5402 80.3005 59.3001 79.5441C59.8876 79.5441 62.825 82.0296 63.8824 81.057C64.7049 80.1925 67.0548 81.057 69.1697 83.5425C65.8799 84.5151 62.2375 86.5683 61.415 88.7297C61.0625 89.7023 62.2375 90.999 63.6474 91.2152C63.6474 91.2152 63.6474 91.2152 63.7649 91.2152C63.7649 91.2152 63.7649 91.2152 63.7649 91.1071C64.3524 87.8651 67.6423 85.3796 69.8747 84.5151C69.9922 84.7312 70.1097 84.8393 70.2272 85.0554C68.1123 86.2441 66.2323 88.2974 65.6449 90.6748C65.2924 91.8636 66.8198 93.0523 67.9948 93.2684C67.9948 93.2684 68.1123 93.2684 68.1123 93.1604C68.3473 90.1345 69.5222 87.649 70.8147 86.1361C70.9322 86.4603 71.0497 86.6764 71.1672 87.0006C70.8147 88.1893 69.9922 90.891 69.9922 92.9442C69.9922 94.241 71.9896 95.1055 72.3421 95.2136C72.6946 95.1055 74.692 94.241 74.692 92.9442C74.692 90.7829 73.8696 88.0813 73.3996 86.8925C73.5171 86.5683 73.6346 86.3522 73.7521 86.028C75.0445 87.4329 76.337 90.1345 76.4545 93.0523C76.4545 93.0523 76.4545 93.1604 76.572 93.1604C77.7469 92.8362 79.1569 91.7555 78.9219 90.5668C78.3344 88.1893 76.4545 86.1361 74.3396 84.9474C74.4571 84.7312 74.5745 84.6232 74.692 84.407C76.9245 85.2716 80.2143 87.8651 80.9193 90.999C80.9193 90.999 80.9193 91.1071 81.0368 91.1071C82.4468 90.891 83.6217 89.5942 83.2692 88.6216C82.4468 86.4603 78.8044 84.407 75.5145 83.4344C77.5119 80.9489 79.8619 80.0844 80.8018 80.9489C81.8593 82.0296 84.7967 79.5441 85.3841 79.436C89.144 80.0844 90.9064 83.8667 91.7289 85.3796L91.8464 85.4877L91.9639 85.5958V85.7038L92.0814 85.8119V85.9199V86.028V86.1361V86.2441V86.3522V86.4603L92.1989 86.7845L92.3164 87.1087L92.4339 87.4329C92.4339 87.5409 92.4339 87.649 92.4339 87.649C92.4339 89.3781 93.9613 90.891 95.9588 90.891C97.1337 90.891 98.1912 90.3506 98.8962 89.4861C99.6011 89.3781 100.424 89.0539 101.011 88.7297C105.593 87.1087 109.236 82.0296 107.238 75.3295C106.886 74.0327 107.003 72.9521 107.356 72.4117C107.473 72.3037 107.238 72.0875 107.121 72.1956L99.3661 75.8698C99.1311 75.9779 99.2486 76.194 99.3661 76.3021C103.478 76.7344 104.653 81.057 103.713 84.1909C103.713 81.7054 101.834 79.5441 99.0136 79.0037C96.1938 78.4634 93.4913 79.8683 92.4339 82.1376C91.7289 80.6247 90.6715 79.0037 89.9665 78.1392C90.084 77.9231 90.084 77.707 90.084 77.4908C89.7315 75.6537 87.0291 70.6827 81.0368 71.5472C83.7392 64.7391 87.6166 63.7665 89.614 63.5504C89.849 63.5504 90.084 63.5504 90.2015 63.5504H90.319C90.9064 66.9004 91.9639 69.602 93.2564 71.115C95.4888 73.4924 99.0136 73.4924 100.659 71.8714V71.7633C100.659 71.7633 100.659 71.6553 100.541 71.6553C99.6011 71.115 94.4313 68.0891 93.3739 63.1181C93.8438 63.01 94.1963 62.7939 94.5488 62.5778C96.1937 65.2794 98.6612 67.5488 100.659 68.5214C103.948 70.0343 107.003 69.2778 108.413 67.1165C108.413 67.0085 108.413 67.0085 108.296 67.0085C106.181 66.9004 99.8361 65.1713 97.2512 60.9568C97.6037 60.7406 97.8387 60.4165 98.1912 60.0923C101.011 62.1455 105.006 63.8745 107.826 64.3068C111.116 64.7391 114.993 63.7665 114.993 60.0923C114.993 59.9842 114.876 59.9842 114.876 59.9842C113.701 60.0923 105.828 60.4165 100.189 57.2825C100.424 56.9583 100.541 56.5261 100.776 56.2019C100.776 56.2019 109.236 58.039 113.231 57.4987C117.225 57.0664 119.575 54.2567 119.105 50.7986ZM50.8404 85.4877C50.7229 85.5958 50.7229 85.5958 50.6054 85.5958C50.1354 85.3796 49.548 85.1635 48.843 85.1635C46.9631 85.1635 45.4356 86.5683 45.3181 88.2974C44.1432 87.8651 43.0857 86.8925 42.8507 85.5958C42.3807 83.6506 43.7907 81.5973 45.9056 81.1651C48.0205 80.7328 50.2529 82.0296 50.7229 83.9748C50.8404 84.5151 50.8404 85.0554 50.8404 85.4877ZM93.8438 84.0828C94.3138 82.1377 96.4287 80.8409 98.6612 81.2731C100.894 81.7054 102.186 83.6506 101.716 85.7038C101.481 86.8925 100.541 87.8651 99.3661 88.2974C99.2486 86.5683 97.7212 85.2716 95.8413 85.2716C95.2538 85.2716 94.6663 85.3796 94.0788 85.7038C93.9613 85.5958 93.7263 85.4877 93.6088 85.3796C93.7263 84.8393 93.7263 84.5151 93.8438 84.0828Z" fill="white"/>
<path d="M86.2059 91.1074L87.7333 92.4042L80.2136 99.5365L75.8663 95.43L72.5764 99.1042L69.404 95.43L64.8217 99.5365L57.1845 92.4042L58.7119 91.1074L56.2445 90.6751L53.7771 90.2429L54.1296 92.5122L54.4821 94.7816L56.0095 93.4848L63.6467 100.617L62.0018 101.914L60.5918 100.617L60.2394 102.887L59.8869 105.156L62.3543 104.832L64.8217 104.508L63.1768 102.995L64.7042 101.59L68.8165 105.372L72.4589 101.374L76.1013 105.48L80.2136 101.59L81.5061 102.995L80.0961 104.291L82.5635 104.616L85.0309 104.94L84.6785 102.67L84.326 100.401L82.681 101.914L81.2711 100.617L88.7908 93.4848L90.3183 94.7816L90.6707 92.5122L91.0232 90.2429L88.5558 90.6751L86.2059 91.1074ZM68.699 103.103L65.8792 100.509L69.0515 97.5913L71.284 100.185L68.699 103.103ZM76.2188 103.211L73.5164 100.185L75.8663 97.5913L78.9212 100.509L76.2188 103.211Z" fill="white"/>
<path d="M135.113 54.1564V34.2318H146.758V54.1564H143.487V37.1227H138.397V54.1564H135.113ZM156.829 33.7839C154.92 33.7839 153.418 34.7294 152.323 36.6206C151.228 38.5298 150.681 41.0317 150.681 44.1262C150.681 47.3294 151.21 49.8765 152.269 51.7676C153.309 53.6588 154.829 54.6043 156.829 54.6043C158.865 54.6043 160.458 53.6135 161.607 51.6319C162.702 49.7408 163.249 47.2299 163.249 44.0991C163.249 41.0045 162.683 38.5117 161.552 36.6206C160.421 34.7294 158.847 33.7839 156.829 33.7839ZM153.802 44.1534C153.802 41.9637 154.06 40.1856 154.576 38.8193C155.074 37.444 155.825 36.7563 156.829 36.7563C157.942 36.7563 158.747 37.453 159.245 38.8465C159.688 40.068 159.91 41.8189 159.91 44.0991C159.91 46.2979 159.652 48.103 159.136 49.5146C158.621 50.9261 157.852 51.6319 156.829 51.6319C155.843 51.6319 155.092 50.9171 154.576 49.4874C154.06 48.0578 153.802 46.2798 153.802 44.1534ZM174.297 34.2318H177.582V54.1564H174.297V44.3434H171.325C169.913 44.3434 168.719 43.9091 167.742 43.0404C166.737 42.1899 166.235 41.1222 166.235 39.8373V34.2318H169.492V39.4572C169.492 39.9911 169.655 40.4164 169.981 40.7331C170.433 41.1583 171.112 41.371 172.017 41.371H174.297V34.2318ZM187.259 54.1564H183.988V37.177H180.866V34.2318H190.408V37.177H187.259V54.1564ZM194.168 34.2318H199.474C201.04 34.2318 202.275 34.5892 203.18 35.304C204.311 36.1998 204.876 37.6114 204.876 39.5387L206.573 54.1564H203.288L202.257 44.2348H197.113L196.76 54.1564H193.475L194.168 34.2318ZM197.167 41.3167H201.877C201.723 39.7785 201.461 38.7198 201.09 38.1407C200.646 37.4802 199.904 37.1499 198.864 37.1499H197.289L197.167 41.3167ZM215.68 54.1564H212.409V37.177H209.287V34.2318H218.829V37.177H215.68V54.1564ZM221.896 54.1564V34.2318H231.927V37.177H225.235V41.0317H230.597V43.9769H225.235V51.2112H231.9V54.1564H221.896ZM234.451 54.1564L238.211 42.8776L235.035 34.2318H238.537L240.952 40.9774L243.436 34.2318H246.816L243.626 42.4297V42.5382L243.491 42.8097L247.44 54.1564H243.966L240.817 45.4021L237.844 54.1564H234.451Z" fill="white"/>
<rect x="135.173" y="61.748" width="112.332" height="30.3614" fill="white"/>
<path d="M158.381 70.7142H160.813L163.967 80.0934L167.111 70.7142H169.544L164.949 83.8325H162.976L158.381 70.7142ZM156.975 70.7142H159.453L159.912 80.4358V83.8325H156.975V70.7142ZM168.472 70.7142H170.958V83.8325H168.012V80.4358L168.472 70.7142ZM184.077 76.985V77.5707C184.077 78.5677 183.938 79.4627 183.662 80.2556C183.392 81.0484 183.004 81.7242 182.5 82.2828C182.001 82.8414 181.407 83.2708 180.716 83.5712C180.031 83.8655 179.271 84.0127 178.437 84.0127C177.602 84.0127 176.839 83.8655 176.148 83.5712C175.457 83.2708 174.857 82.8414 174.346 82.2828C173.842 81.7242 173.451 81.0484 173.175 80.2556C172.899 79.4627 172.76 78.5677 172.76 77.5707V76.985C172.76 75.9879 172.899 75.093 173.175 74.3001C173.451 73.5012 173.839 72.8225 174.337 72.2639C174.842 71.7053 175.439 71.2788 176.13 70.9845C176.821 70.6842 177.584 70.534 178.418 70.534C179.253 70.534 180.016 70.6842 180.707 70.9845C181.398 71.2788 181.992 71.7053 182.491 72.2639C182.995 72.8225 183.386 73.5012 183.662 74.3001C183.938 75.093 184.077 75.9879 184.077 76.985ZM181.112 77.5707V76.967C181.112 76.3003 181.052 75.7116 180.932 75.2011C180.812 74.6845 180.638 74.2521 180.41 73.9037C180.181 73.5553 179.899 73.294 179.563 73.1198C179.226 72.9396 178.845 72.8495 178.418 72.8495C177.974 72.8495 177.587 72.9396 177.256 73.1198C176.926 73.294 176.647 73.5553 176.418 73.9037C176.196 74.2521 176.025 74.6845 175.905 75.2011C175.791 75.7116 175.734 76.3003 175.734 76.967V77.5707C175.734 78.2314 175.791 78.82 175.905 79.3366C176.025 79.8471 176.199 80.2796 176.427 80.634C176.656 80.9884 176.935 81.2557 177.265 81.4359C177.602 81.6161 177.992 81.7062 178.437 81.7062C178.863 81.7062 179.241 81.6161 179.572 81.4359C179.908 81.2557 180.19 80.9884 180.419 80.634C180.647 80.2796 180.818 79.8471 180.932 79.3366C181.052 78.82 181.112 78.2314 181.112 77.5707ZM191.302 70.7142V83.8325H188.374V70.7142H191.302ZM195.294 70.7142V72.9937H184.464V70.7142H195.294ZM199.871 70.7142V83.8325H196.943V70.7142H199.871ZM213.178 76.985V77.5707C213.178 78.5677 213.04 79.4627 212.764 80.2556C212.493 81.0484 212.106 81.7242 211.602 82.2828C211.103 82.8414 210.508 83.2708 209.818 83.5712C209.133 83.8655 208.373 84.0127 207.538 84.0127C206.703 84.0127 205.94 83.8655 205.25 83.5712C204.559 83.2708 203.958 82.8414 203.448 82.2828C202.943 81.7242 202.553 81.0484 202.276 80.2556C202 79.4627 201.862 78.5677 201.862 77.5707V76.985C201.862 75.9879 202 75.093 202.276 74.3001C202.553 73.5012 202.94 72.8225 203.439 72.2639C203.943 71.7053 204.541 71.2788 205.232 70.9845C205.922 70.6842 206.685 70.534 207.52 70.534C208.355 70.534 209.118 70.6842 209.809 70.9845C210.499 71.2788 211.094 71.7053 211.593 72.2639C212.097 72.8225 212.487 73.5012 212.764 74.3001C213.04 75.093 213.178 75.9879 213.178 76.985ZM210.214 77.5707V76.967C210.214 76.3003 210.154 75.7116 210.034 75.2011C209.914 74.6845 209.739 74.2521 209.511 73.9037C209.283 73.5553 209.001 73.294 208.664 73.1198C208.328 72.9396 207.947 72.8495 207.52 72.8495C207.076 72.8495 206.688 72.9396 206.358 73.1198C206.027 73.294 205.748 73.5553 205.52 73.9037C205.298 74.2521 205.126 74.6845 205.006 75.2011C204.892 75.7116 204.835 76.3003 204.835 76.967V77.5707C204.835 78.2314 204.892 78.82 205.006 79.3366C205.126 79.8471 205.301 80.2796 205.529 80.634C205.757 80.9884 206.036 81.2557 206.367 81.4359C206.703 81.6161 207.094 81.7062 207.538 81.7062C207.965 81.7062 208.343 81.6161 208.673 81.4359C209.01 81.2557 209.292 80.9884 209.52 80.634C209.749 80.2796 209.92 79.8471 210.034 79.3366C210.154 78.82 210.214 78.2314 210.214 77.5707ZM225.801 70.7142V83.8325H222.873L217.917 75.3543V83.8325H214.98V70.7142H217.917L222.882 79.1924V70.7142H225.801Z" fill="#050E2D"/>
<path d="M256.993 24.2285V33.2408H255.214V26.2793L253.076 26.9588V25.5566L256.801 24.2285H256.993ZM260.081 32.3822C260.081 32.1187 260.172 31.8984 260.353 31.7213C260.538 31.5442 260.783 31.4557 261.088 31.4557C261.393 31.4557 261.636 31.5442 261.817 31.7213C262.002 31.8984 262.095 32.1187 262.095 32.3822C262.095 32.6458 262.002 32.8661 261.817 33.0432C261.636 33.2203 261.393 33.3088 261.088 33.3088C260.783 33.3088 260.538 33.2203 260.353 33.0432C260.172 32.8661 260.081 32.6458 260.081 32.3822ZM269.643 27.9533V29.5099C269.643 30.1853 269.571 30.768 269.427 31.258C269.283 31.7439 269.075 32.1434 268.803 32.4564C268.535 32.7652 268.216 32.9938 267.846 33.142C267.475 33.2903 267.063 33.3644 266.61 33.3644C266.248 33.3644 265.91 33.3191 265.597 33.2285C265.284 33.1338 265.002 32.9876 264.751 32.7899C264.504 32.5923 264.29 32.3431 264.109 32.0425C263.931 31.7378 263.796 31.3754 263.701 30.9553C263.606 30.5353 263.559 30.0535 263.559 29.5099V27.9533C263.559 27.2779 263.631 26.6994 263.775 26.2175C263.923 25.7316 264.131 25.3342 264.399 25.0254C264.671 24.7165 264.992 24.49 265.362 24.3459C265.733 24.1977 266.145 24.1235 266.598 24.1235C266.96 24.1235 267.296 24.1709 267.605 24.2656C267.918 24.3562 268.2 24.4983 268.451 24.6918C268.702 24.8854 268.916 25.1345 269.093 25.4392C269.27 25.7399 269.406 26.1002 269.501 26.5202C269.596 26.9361 269.643 27.4138 269.643 27.9533ZM267.858 29.7446V27.7124C267.858 27.3871 267.839 27.1029 267.802 26.86C267.769 26.617 267.718 26.4111 267.648 26.2423C267.578 26.0693 267.491 25.9293 267.389 25.8222C267.286 25.7151 267.168 25.6369 267.036 25.5875C266.905 25.5381 266.758 25.5134 266.598 25.5134C266.396 25.5134 266.217 25.5525 266.06 25.6307C265.908 25.709 265.778 25.8346 265.671 26.0075C265.564 26.1764 265.482 26.4029 265.424 26.687C265.371 26.967 265.344 27.3088 265.344 27.7124V29.7446C265.344 30.07 265.36 30.3562 265.393 30.6032C265.43 30.8503 265.484 31.0624 265.554 31.2395C265.628 31.4124 265.715 31.5545 265.813 31.6657C265.916 31.7728 266.034 31.851 266.165 31.9004C266.301 31.9498 266.45 31.9746 266.61 31.9746C266.808 31.9746 266.983 31.9354 267.135 31.8572C267.292 31.7748 267.424 31.6472 267.531 31.4742C267.642 31.2971 267.724 31.0665 267.778 30.7824C267.831 30.4982 267.858 30.1523 267.858 29.7446Z" fill="#52ACFF"/>
</svg>
